<svg width="41" height="40" fill="none" xmlns="http://www.w3.org/2000/svg"><path fill-rule="evenodd" clip-rule="evenodd" d="M20.5 0c10.98 0 19.882 8.902 19.882 19.882 0 10.981-8.901 19.883-19.882 19.883C9.52 39.765.618 30.863.618 19.882.618 8.902 9.519 0 20.5 0Zm9.682 10.669c-.197.028-.446.026-.665.103a18.2 18.2 0 0 0-.787.3l-.78.318c-.286.115-.566.243-.85.358-.543.22-1.088.434-1.63.653-.291.118-.579.245-.869.364-.53.22-1.06.434-1.59.654-.285.118-.565.245-.85.36-.415.168-.832.326-1.246.494-.297.12-.588.255-.884.375l-1.314.52c-.273.111-.541.236-.815.348-.587.238-1.176.47-1.764.708-.246.099-.489.207-.735.305-.567.226-1.135.447-1.702.672-.303.12-.605.24-.907.363l-1.24.508c-.284.117-.568.236-.853.35-.532.215-1.065.427-1.597.64-.326.13-.653.257-.978.39-.474.195-.956.378-1.348.72-.175.151-.328.324-.355.563-.031.27.178.627.45.74.29.118.593.208.892.303.76.244 1.52.492 2.284.723.532.16 1.073.297 1.61.442.49.133.982.15 1.485.063a2.86 2.86 0 0 0 1.15-.46c.545-.372 1.108-.72 1.661-1.082.553-.363 1.103-.73 1.655-1.096l1.396-.925c.485-.323.971-.645 1.455-.97.375-.251.745-.51 1.121-.761.614-.411 1.224-.83 1.848-1.224.446-.283.892-.57 1.423-.694.149-.035.302-.049.364.058.06.102.066.288.01.392-.152.28-.317.568-.536.799-.493.521-1.016 1.015-1.536 1.511-.643.613-1.291 1.22-1.942 1.825-.876.813-1.759 1.62-2.633 2.433-.355.33-.724.652-1.035 1.02-.255.302-.316.672-.132 1.063.125.265.316.467.539.639.504.389 1.019.765 1.533 1.142.272.199.548.392.829.58.494.33.991.654 1.49.979l1.434.931c.404.264.8.54 1.21.794.369.227.742.453 1.134.635.32.15.672.233 1.009.346.419.14.838.133 1.223-.076.463-.252.703-.69.823-1.173.113-.459.162-.933.236-1.4.037-.232.062-.465.1-.695.087-.526.18-1.051.267-1.577l.09-.588c.065-.383.14-.765.2-1.15.063-.403.105-.81.17-1.212.115-.704.241-1.407.359-2.11.037-.225.055-.453.092-.678.087-.52.184-1.04.267-1.56.063-.39.108-.784.168-1.176.09-.592.188-1.183.28-1.775.057-.356.108-.713.161-1.069.093-.616.19-1.232.279-1.85.04-.273.055-.55.095-.823a1.35 1.35 0 0 0-.185-.91c-.22-.367-.6-.431-1.034-.45Z" fill="#121212"/></svg>